<svg width="129" height="103" viewBox="0 0 129 103" fill="none" xmlns="http://www.w3.org/2000/svg">
<mask id="path-1-inside-1_198_1034" fill="white">
<rect x="114.185" width="10.8844" height="10.8844" rx="1.81406"/>
</mask>
<rect x="114.185" width="10.8844" height="10.8844" rx="1.81406" stroke="#A5ACFF" stroke-width="6.45" mask="url(#path-1-inside-1_198_1034)"/>
<path d="M20.2911 42.449H3.81578C3.26138 42.449 2.9008 41.8655 3.14873 41.3697L11.3864 24.8943C11.6612 24.3447 12.4456 24.3447 12.7205 24.8943L20.9581 41.3697C21.2061 41.8655 20.8455 42.449 20.2911 42.449Z" stroke="#A5ACFF" stroke-width="3.225"/>
<rect x="115.728" y="89.7262" width="12.0317" height="12.0317" rx="6.01587" stroke="#A5ACFF" stroke-width="2.48077"/>
<path d="M108.441 96.1454C108.886 96.1454 109.247 95.7844 109.247 95.3392C109.247 94.8939 108.886 94.5329 108.441 94.5329V96.1454ZM79.5166 76.7954L74.8617 84.8579H84.1715L79.5166 76.7954ZM108.441 94.5329H81.3307V96.1454H108.441V94.5329ZM80.3229 93.5251V84.0517H78.7104V93.5251H80.3229ZM81.3307 94.5329C80.7741 94.5329 80.3229 94.0817 80.3229 93.5251H78.7104C78.7104 94.9723 79.8835 96.1454 81.3307 96.1454V94.5329Z" fill="#D5D5FF"/>
<path d="M120.232 15.1172C120.232 14.6719 119.871 14.3109 119.426 14.3109C118.98 14.3109 118.619 14.6719 118.619 15.1172H120.232ZM101.89 35.6766L109.952 40.3314V31.0217L101.89 35.6766ZM118.619 15.1172V33.8625H120.232V15.1172H118.619ZM117.612 34.8703H109.146V36.4828H117.612V34.8703ZM118.619 33.8625C118.619 34.4191 118.168 34.8703 117.612 34.8703V36.4828C119.059 36.4828 120.232 35.3097 120.232 33.8625H118.619Z" fill="#D5D5FF"/>
<path d="M44.1424 59.8639L36.0799 55.209V64.5188L44.1424 59.8639ZM13.3033 48.9795C13.3033 48.5342 12.9423 48.1732 12.4971 48.1732C12.0518 48.1732 11.6908 48.5342 11.6908 48.9795H13.3033ZM14.3111 60.6701H36.8861V59.0576H14.3111V60.6701ZM13.3033 58.0498V48.9795H11.6908V58.0498H13.3033ZM14.3111 59.0576C13.7545 59.0576 13.3033 58.6064 13.3033 58.0498H11.6908C11.6908 59.497 12.864 60.6701 14.3111 60.6701V59.0576Z" fill="#D5D5FF"/>
<g clip-path="url(#clip0_198_1034)">
<path d="M51.0962 30.839C51.0962 29.556 51.6059 28.3255 52.5131 27.4183C53.4203 26.5111 54.6507 26.0015 55.9337 26.0015H89.7962C91.0792 26.0015 92.3096 26.5111 93.2168 27.4183C94.124 28.3255 94.6337 29.556 94.6337 30.839V64.7015C94.6337 65.9844 94.124 67.2149 93.2168 68.1221C92.3096 69.0293 91.0792 69.539 89.7962 69.539H55.9337C54.6507 69.539 53.4203 69.0293 52.5131 68.1221C51.6059 67.2149 51.0962 65.9844 51.0962 64.7015V30.839Z" stroke="#A5ACFF" stroke-width="3.225" stroke-linecap="round" stroke-linejoin="round"/>
<path d="M51.0962 42.9326H94.6337" stroke="#A5ACFF" stroke-width="3.225" stroke-linecap="round" stroke-linejoin="round"/>
<path d="M68.0273 26.0015V69.539" stroke="#A5ACFF" stroke-width="3.225" stroke-linecap="round" stroke-linejoin="round"/>
</g>
<defs>
<clipPath id="clip0_198_1034">
<rect width="58.05" height="58.05" fill="white" transform="translate(43.8398 18.7451)"/>
</clipPath>
</defs>
</svg>
