<?xml version="1.0" encoding="UTF-8"?><svg id="Layer_1" xmlns="http://www.w3.org/2000/svg" viewBox="0 0 16 16"><defs><style>.cls-1{fill:#fc466b;}.cls-2{fill:#545beb;}</style></defs><g><path class="cls-2" d="M13.92,7.76l-5.93,5.93c-.26,.26-.06,.71,.31,.68,1.57-.12,3.11-.78,4.31-1.99s1.86-2.74,1.99-4.31c.03-.37-.42-.57-.68-.31Z"/><path class="cls-2" d="M13.97,4.61v-.02c-.36-.74-1.33-.92-1.91-.34l-7.58,7.58c-.58,.58-.4,1.55,.34,1.9h.02c.44,.22,.97,.12,1.32-.23l7.57-7.57c.35-.35,.45-.87,.24-1.32Z"/><path class="cls-2" d="M7.54,1.38c.26-.26,.06-.71-.31-.68-1.57,.12-3.11,.78-4.31,1.99S1.05,5.43,.93,7c-.03,.37,.42,.57,.68,.31L7.54,1.38Z"/></g><g><path class="cls-2" d="M2.67,8.27l-.87,.87c-.35,.35-.44,.88-.23,1.33v.02c.36,.73,1.33,.9,1.9,.33l.88-.88c.46-.46,.46-1.21,0-1.68h0c-.46-.46-1.21-.46-1.68,0Z"/><path class="cls-1" d="M7.09,7.2l3.96-3.96c.57-.57,.41-1.54-.33-1.89h-.02c-.45-.22-.98-.13-1.33,.22l-3.96,3.96c-.46,.46-.46,1.21,0,1.68h0c.46,.46,1.21,.46,1.68,0Z"/></g></svg>