<svg width="205" height="205" viewBox="0 0 205 205" fill="none" xmlns="http://www.w3.org/2000/svg">
<path d="M194.775 105.872L105.872 194.775C101.952 198.695 105.04 205.417 110.558 204.979C134.119 203.14 157.177 193.221 175.199 175.199C193.22 157.178 203.14 134.12 204.979 110.558C205.417 105.018 198.694 101.931 194.775 105.872Z" fill="#3A3A8C"/>
<path d="M195.519 58.6398L195.366 58.3113C190.111 47.2313 175.593 44.5379 166.943 53.2092L53.2308 166.922C44.5594 175.593 47.2527 190.089 58.3327 195.345L58.6613 195.498C65.318 198.629 73.2228 197.118 78.4343 191.929L191.95 78.413C197.14 73.2234 198.651 65.2966 195.519 58.6398Z" fill="#3A3A8C"/>
<path d="M99.1277 10.2245C103.047 6.30491 99.9597 -0.417563 94.4416 0.0203837C70.8801 1.85976 47.8222 11.7792 29.8007 29.8007C11.7792 47.8222 1.85976 70.8801 0.0203835 94.4416C-0.417563 99.9816 6.30499 103.069 10.2246 99.1276L99.1277 10.2245Z" fill="#3A3A8C"/>
<path d="M26.1 113.514L13.049 126.565C7.79365 131.82 6.3923 139.812 9.56741 146.535L9.69892 146.841C14.8886 157.856 29.4502 160.374 38.0558 151.768L51.1942 138.63C58.1357 131.688 58.1357 120.455 51.1942 113.514C44.2528 106.572 33.0195 106.572 26.0781 113.514H26.1Z" fill="#3A3A8C"/>
<path d="M92.3832 97.4632L151.791 38.0558C160.396 29.4502 157.878 14.9104 146.864 9.69879L146.557 9.56741C139.835 6.39229 131.842 7.77183 126.587 13.0491L67.267 72.3689C60.3256 79.3104 60.3256 90.5437 67.267 97.4851C74.2084 104.427 85.4417 104.427 92.3832 97.4851V97.4632Z" fill="#00A896"/>
</svg>
