<svg width="24" height="24" viewBox="0 0 24 24" fill="none" xmlns="http://www.w3.org/2000/svg">
<path d="M22.2379 12.6837L12.0888 22.8328C11.6413 23.2802 11.9938 24.0477 12.6237 23.9977C15.3135 23.7877 17.9458 22.6553 20.0031 20.598C22.0604 18.5407 23.1928 15.9084 23.4028 13.2186C23.4528 12.5862 22.6853 12.2337 22.2379 12.6837Z" fill="#545BEB"/>
<path d="M22.3228 7.29172L22.3053 7.25422C21.7053 5.98933 20.048 5.68186 19.0606 6.67177L6.07924 19.6531C5.08933 20.643 5.3968 22.2979 6.66169 22.8978L6.69919 22.9153C7.45912 23.2728 8.36154 23.1003 8.95648 22.5079L21.9153 9.54902C22.5078 8.95657 22.6803 8.05165 22.3228 7.29172Z" fill="#545BEB"/>
<path d="M11.3188 1.76464C11.7663 1.31718 11.4138 0.549744 10.7839 0.599739C8.0941 0.80972 5.46184 1.94212 3.40452 3.99944C1.34721 6.05425 0.214808 8.68651 0.00232699 11.3763C-0.0476685 12.0087 0.719763 12.3612 1.16722 11.9112L11.3163 1.76213L11.3188 1.76464Z" fill="#545BEB"/>
<path d="M2.98187 13.5561L1.49201 15.046C0.89206 15.6459 0.732074 16.5583 1.09454 17.3258L1.10954 17.3608C1.70199 18.6182 3.36434 18.9056 4.34675 17.9232L5.84661 16.4234C6.63904 15.6309 6.63904 14.3485 5.84661 13.5561C5.05419 12.7637 3.7718 12.7637 2.97937 13.5561H2.98187Z" fill="#545BEB"/>
<path d="M10.5487 11.7238L17.3306 4.94191C18.313 3.9595 18.0256 2.29965 16.7682 1.7047L16.7332 1.6897C15.9657 1.32723 15.0533 1.48472 14.4534 2.08716L7.68148 8.85905C6.88905 9.65148 6.88905 10.9339 7.68148 11.7263C8.47391 12.5187 9.75629 12.5187 10.5487 11.7263V11.7238Z" fill="#FC466B"/>
</svg>
